<?xml version="1.0" encoding="utf-8"?>
<!-- Generator: Adobe Illustrator 21.0.0, SVG Export Plug-In . SVG Version: 6.00 Build 0)  -->
<svg version="1.1" id="Layer_1" xmlns="http://www.w3.org/2000/svg" xmlns:xlink="http://www.w3.org/1999/xlink" x="0px" y="0px"
	 viewBox="0 0 1208.5 299.8" style="enable-background:new 0 0 1208.5 299.8;" xml:space="preserve">
<style type="text/css">
	.st0{fill:none;}
	.st1{fill:#C5E8EF;}
	.st2{fill:none;stroke:#F1F2F2;stroke-width:2;stroke-miterlimit:10;}
	.st3{fill:#E6E7E8;}
	.st4{opacity:0.2;fill:#F15A29;}
	.st5{fill:#EFE5D8;}
	.st6{fill:#009444;}
	.st7{opacity:0.6;}
	.st8{fill:#FFFFFF;}
	.st9{fill:none;stroke:#FFFFFF;stroke-width:5;stroke-miterlimit:10;}
	.st10{fill:#CFE5AE;}
	.st11{fill:#C2B59B;}
	.st12{fill:#A97C50;}
	.st13{fill:#8DC63F;}
	.st14{opacity:0.7;}
	.st15{fill:#DAF0F3;}
	.st16{fill:#808285;}
	.st17{fill:#D1D3D4;}
	.st18{fill:#6D6E71;}
	.st19{opacity:0.4;}
	.st20{fill:#A7A9AC;}
	.st21{fill:none;stroke:#FFFFFF;stroke-width:2;stroke-miterlimit:10;}
	.st22{fill:#FFE6CB;}
	.st23{fill:#C49A6C;}
	.st24{fill:#F1F2F2;}
	.st25{fill:#BCBEC0;}
	.st26{fill:#76CFEE;}
	.st27{fill:#0AABD6;}
	.st28{opacity:0.3;fill:#DAF0F3;}
	.st29{fill:url(#);}
	.st30{opacity:0.6;fill:url(#New_Pattern_Swatch_4);}
	.st31{opacity:0.4;fill:url(#New_Pattern);}
	.st32{fill:#0AABD6;stroke:#76CFEE;stroke-width:4;stroke-linecap:round;stroke-miterlimit:10;}
	.st33{fill:none;stroke:#A7A9AC;stroke-width:0.5;stroke-miterlimit:10;}
	.st34{fill:#F15A29;}
	.st35{fill:none;stroke:#F7941D;stroke-width:2;stroke-miterlimit:10;}
	.st36{fill:none;stroke:#F7941D;stroke-width:2;stroke-miterlimit:10;stroke-dasharray:2.009091e-02,1.999,2.0091,0;}
	.st37{fill:none;stroke:#F7941D;stroke-width:2;stroke-miterlimit:10;stroke-dasharray:2.0091,1.999,2.009091e-02,1.999,2.0091,0;}
	.st38{fill:none;stroke:#F7941D;stroke-width:2;stroke-miterlimit:10;stroke-dasharray:1.982516e-02,5.9376,1.9825,0;}
	
		.st39{fill:none;stroke:#F7941D;stroke-width:2;stroke-miterlimit:10;stroke-dasharray:5.9475,1.9726,1.982516e-02,5.9376,1.9825,0;}
	.st40{fill:none;stroke:#F7941D;stroke-width:2;stroke-miterlimit:10;stroke-dasharray:1.920795e-02,1.9112,1.9208,0;}
	
		.st41{fill:none;stroke:#F7941D;stroke-width:2;stroke-miterlimit:10;stroke-dasharray:1.9208,1.9112,1.920795e-02,1.9112,1.9208,0;}
	.st42{clip-path:url(#SVGID_2_);}
	.st43{opacity:0.2;}
	.st44{clip-path:url(#SVGID_4_);}
	.st45{clip-path:url(#SVGID_6_);}
	.st46{clip-path:url(#SVGID_8_);}
	.st47{clip-path:url(#SVGID_10_);}
	.st48{clip-path:url(#SVGID_12_);}
	.st49{clip-path:url(#SVGID_14_);}
	.st50{clip-path:url(#SVGID_16_);}
	.st51{fill:#FFFFFF;stroke:#000000;stroke-miterlimit:10;}
	.st52{fill:#F7941D;}
	.st53{fill:none;stroke:#FFFFFF;stroke-width:8;stroke-linecap:round;stroke-miterlimit:10;}
	.st54{fill:none;stroke:#939598;stroke-width:4;stroke-linecap:round;stroke-linejoin:round;stroke-miterlimit:10;}
	.st55{fill:#808285;stroke:#FFFFFF;stroke-width:8;stroke-linecap:round;stroke-linejoin:round;stroke-miterlimit:10;}
	.st56{fill:#6D6E71;stroke:#FFFFFF;stroke-width:8;stroke-linejoin:round;stroke-miterlimit:10;}
	.st57{fill:#FBB040;stroke:#FFFFFF;stroke-width:8;stroke-linejoin:round;stroke-miterlimit:10;}
	.st58{fill:#808285;stroke:#FFFFFF;stroke-width:8;stroke-linejoin:round;stroke-miterlimit:10;}
	.st59{fill:none;stroke:#FFFFFF;stroke-width:10;stroke-linecap:round;stroke-linejoin:round;stroke-miterlimit:10;}
	.st60{fill:none;stroke:#FFFFFF;stroke-width:8;stroke-linecap:round;stroke-linejoin:round;stroke-miterlimit:10;}
	.st61{fill:none;stroke:#FFFFFF;stroke-width:8;stroke-linejoin:round;stroke-miterlimit:10;}
	.st62{fill:#F15A29;stroke:#FFFFFF;stroke-width:8;stroke-linejoin:round;stroke-miterlimit:10;}
	.st63{fill:#009444;stroke:#FFFFFF;stroke-width:8;stroke-linejoin:round;stroke-miterlimit:10;}
	.st64{fill:#8DC63F;stroke:#FFFFFF;stroke-width:8;stroke-linejoin:round;stroke-miterlimit:10;}
	.st65{fill:#FBB040;}
	.st66{fill:#BCBEC0;stroke:#FFFFFF;stroke-width:8;stroke-linejoin:round;stroke-miterlimit:10;}
	.st67{fill:#E6E7E8;stroke:#FFFFFF;stroke-width:8;stroke-linejoin:round;stroke-miterlimit:10;}
	.st68{fill:#FCB32F;}
	.st69{opacity:0.5;fill:#F1F2F2;}
	.st70{opacity:0.3;fill:#F1F2F2;}
	.st71{opacity:0.7;fill:#FFFFFF;}
	.st72{fill:none;stroke:#F7941D;stroke-width:3;stroke-linecap:round;stroke-miterlimit:10;}
	.st73{fill:none;stroke:#009444;stroke-linecap:round;stroke-miterlimit:10;}
	.st74{fill:#8C643E;}
	.st75{fill:none;stroke:#808285;stroke-width:4;stroke-linecap:round;stroke-miterlimit:10;}
	.st76{fill:none;stroke:#D1D3D4;stroke-width:4;stroke-linecap:round;stroke-miterlimit:10;}
	.st77{fill:#939598;stroke:#D1D3D4;stroke-width:4;stroke-linecap:round;stroke-miterlimit:10;}
	.st78{fill:#FCB32F;stroke:#FCB32F;stroke-width:4;stroke-linecap:round;stroke-miterlimit:10;}
	.st79{fill:none;stroke:#F7941D;stroke-width:4;stroke-linecap:round;stroke-miterlimit:10;}
	.st80{fill:#C5E8EF;stroke:#F7941D;stroke-width:4;stroke-linecap:round;stroke-miterlimit:10;}
	.st81{fill:#939598;stroke:#D1D3D4;stroke-width:7;stroke-linecap:round;stroke-miterlimit:10;}
	.st82{fill:none;stroke:#76CFEE;stroke-width:4;stroke-linecap:round;stroke-miterlimit:10;}
	.st83{fill:#E6E7E8;stroke:#808285;stroke-width:4;stroke-linecap:round;stroke-miterlimit:10;}
	.st84{fill:none;stroke:#BCBEC0;stroke-width:7;stroke-linecap:round;stroke-miterlimit:10;}
	.st85{fill:none;stroke:#E6E7E8;stroke-width:2;stroke-miterlimit:10;}
	.st86{opacity:0.7;fill:#DAF0F3;}
	.st87{fill:#BCBEC0;stroke:#BCBEC0;stroke-width:8;stroke-linejoin:round;stroke-miterlimit:10;}
	.st88{fill:none;stroke:#76CFEE;stroke-width:8;stroke-linejoin:round;stroke-miterlimit:10;}
	.st89{fill:#0AABD6;stroke:#0AABD6;stroke-width:8;stroke-linejoin:round;stroke-miterlimit:10;}
	.st90{fill:#808285;stroke:#808285;stroke-width:8;stroke-linejoin:round;stroke-miterlimit:10;}
	.st91{fill:none;stroke:#76CFEE;stroke-width:8;stroke-linecap:round;stroke-linejoin:round;stroke-miterlimit:10;}
	.st92{fill:none;stroke:#FFFFFF;stroke-width:3;stroke-linecap:round;stroke-linejoin:round;stroke-miterlimit:10;}
	.st93{fill:#8DC63F;stroke:#8DC63F;stroke-width:3;stroke-miterlimit:10;}
	.st94{fill:none;stroke:#8DC63F;stroke-width:3;stroke-linecap:round;stroke-linejoin:round;stroke-miterlimit:10;}
	.st95{fill:#009444;stroke:#009444;stroke-width:3;stroke-miterlimit:10;}
	.st96{fill:none;stroke:#8DC63F;stroke-width:3;stroke-linecap:round;stroke-miterlimit:10;}
	.st97{fill:url(#SVGID_17_);}
	.st98{fill:url(#SVGID_18_);}
	.st99{fill:url(#SVGID_19_);}
	.st100{fill:#B98A59;}
	.st101{fill:url(#SVGID_20_);}
	.st102{fill:url(#SVGID_21_);}
	.st103{fill:url(#SVGID_22_);}
	.st104{fill:url(#SVGID_23_);}
	.st105{fill:url(#SVGID_24_);}
</style>
<pattern  x="-374.4" y="-2443.2" width="47.7" height="47.7" patternUnits="userSpaceOnUse" id="New_Pattern" viewBox="0 -47.7 47.7 47.7" style="overflow:visible;">
	<g>
		<rect y="-47.7" class="st0" width="47.7" height="47.7"/>
		<rect x="0.1" y="-47.7" class="st1" width="46.7" height="46.7"/>
		<line class="st2" x1="23.5" y1="-47.7" x2="23.5" y2="-1"/>
		<line class="st2" x1="46.7" y1="-47.7" x2="46.7" y2="-1"/>
		<line class="st2" x1="0.1" y1="-10.3" x2="46.8" y2="-10.3"/>
		<line class="st2" x1="0" y1="-1" x2="46.7" y2="-1"/>
		<line class="st2" x1="0.1" y1="-29" x2="46.8" y2="-29"/>
		<line class="st2" x1="0.1" y1="-19.7" x2="46.8" y2="-19.7"/>
		<line class="st2" x1="0.1" y1="-38.3" x2="46.8" y2="-38.3"/>
	</g>
</pattern>
<pattern  x="-374.4" y="-2443.2" width="47.7" height="47.7" patternUnits="userSpaceOnUse" id="New_Pattern_Swatch_4" viewBox="0 -47.7 47.7 47.7" style="overflow:visible;">
	<g>
		<rect y="-47.7" class="st0" width="47.7" height="47.7"/>
		<rect x="0.1" y="-47.7" class="st3" width="46.7" height="46.7"/>
		<line class="st2" x1="9.5" y1="-47.7" x2="9.5" y2="-1"/>
		<line class="st2" x1="28.1" y1="-47.7" x2="28.1" y2="-1"/>
		<line class="st2" x1="18.8" y1="-47.7" x2="18.8" y2="-1"/>
		<line class="st2" x1="37.5" y1="-47.7" x2="37.5" y2="-1"/>
		<line class="st2" x1="46.7" y1="-47.7" x2="46.7" y2="-1"/>
		<line class="st2" x1="0.1" y1="-10.3" x2="46.8" y2="-10.3"/>
		<line class="st2" x1="0" y1="-1" x2="46.7" y2="-1"/>
		<line class="st2" x1="0.1" y1="-29" x2="46.8" y2="-29"/>
		<line class="st2" x1="0.1" y1="-19.7" x2="46.8" y2="-19.7"/>
		<line class="st2" x1="0.1" y1="-38.3" x2="46.8" y2="-38.3"/>
	</g>
</pattern>
<g class="st7">
	<pattern  id="SVGID_2_" xlink:href="#New_Pattern_Swatch_4" patternTransform="matrix(1 0 0 1 129.597 -162.8232)"  class="st7">
	</pattern>
	<rect x="0" style="fill:url(#SVGID_2_);" width="1208.5" height="300"/>
	<pattern  id="SVGID_4_" xlink:href="#New_Pattern" patternTransform="matrix(1 0 0 1 129.597 -162.8232)"  class="st7">
	</pattern>
	<rect x="0" y="101.2" style="fill:url(#SVGID_4_);" width="1208.5" height="47.7"/>
</g>
<line class="st32" x1="478.8" y1="110.7" x2="469.6" y2="120.7"/>
<line class="st32" x1="509" y1="110.7" x2="500.9" y2="120.4"/>
<line class="st32" x1="493.9" y1="128" x2="481.9" y2="143.7"/>
<line class="st32" x1="476.2" y1="152" x2="467.8" y2="165.4"/>
<line class="st32" x1="500.2" y1="103.4" x2="487.6" y2="117.2"/>
<line class="st32" x1="481" y1="124.2" x2="464.6" y2="143.1"/>
<line class="st32" x1="492.4" y1="94.2" x2="482.7" y2="102.3"/>
<line class="st83" x1="434.4" y1="59.1" x2="442.1" y2="59.1"/>
<line class="st83" x1="459.1" y1="59.1" x2="466.8" y2="59.1"/>
<line class="st83" x1="410.9" y1="59.1" x2="418.6" y2="59.1"/>
<line class="st83" x1="388.2" y1="59.1" x2="395.9" y2="59.1"/>
<g>
	<g>
		<rect x="790.1" y="208.9" class="st25" width="21.6" height="91.7"/>
		<path class="st8" d="M831.5,196.9c0,15-13.7,27.2-30.6,27.2s-30.6-12.2-30.6-27.2"/>
		<line class="st84" x1="800.4" y1="196.9" x2="800.4" y2="176.2"/>
		<line class="st84" x1="785.9" y1="196.9" x2="785.9" y2="184.9"/>
		<line class="st84" x1="813.8" y1="196.9" x2="813.8" y2="184.9"/>
		<line class="st81" x1="764.2" y1="196.9" x2="837.6" y2="196.9"/>
	</g>
	<g>
		<ellipse class="st25" cx="800.4" cy="120.5" rx="37.8" ry="45.1"/>
		<ellipse class="st24" cx="800.9" cy="119.7" rx="32" ry="38.1"/>
		<g>
			<line class="st85" x1="786.5" y1="109.1" x2="793" y2="102.6"/>
			<line class="st85" x1="780.7" y1="125.7" x2="803.5" y2="102.8"/>
			<line class="st85" x1="787.8" y1="131.5" x2="803.1" y2="116.2"/>
		</g>
	</g>
</g>
<line class="st76" x1="603.2" y1="177.6" x2="709.2" y2="177.6"/>
<path class="st52" d="M656,236.8h-33.4c-3.4,0-6.2-2.8-6.2-6.2v-58.1c0-3.4,2.8-6.2,6.2-6.2H656c3.4,0,6.2,2.8,6.2,6.2v58.1
	C662.2,234,659.4,236.8,656,236.8z"/>
<path class="st68" d="M691.1,208.3h-13.4c-1.8,0-3.3-1.5-3.3-3.3V171c0-1.8,1.5-3.3,3.3-3.3h13.4c1.8,0,3.3,1.5,3.3,3.3V205
	C694.4,206.8,692.9,208.3,691.1,208.3z"/>
<g>
	<path class="st8" d="M567.2,220.4h-93.5h0h-93.5c0,0,5.4,53.8,51.8,66.8l-4.3,5.8c-1.3,1.8-0.9,4.3,0.9,5.7l0.5,0.3
		c1.8,1.3,4.3,0.9,5.7-0.9l6.6-9c3.8,0.6,7.9,0.9,12.2,0.9c1.5,0,3,0,4.4,0c6.3,0,11.5,0,15.7,0c0,0,0,0,0,0c11.9,0,15.8,0,15.7,0
		c1.4,0,2.9,0,4.4,0c4.3,0,8.4-0.3,12.2-0.9l6.6,9c1.3,1.8,3.9,2.2,5.7,0.9l0.5-0.3c1.8-1.3,2.2-3.9,0.9-5.7l-4.3-5.8
		C561.8,274.2,567.2,220.4,567.2,220.4z"/>
	<line class="st75" x1="370.3" y1="53.1" x2="577.2" y2="53.1"/>
	<g>
		<g>
			<path class="st76" d="M556.4,218.1V111.2c0-7.1-2.3-14-6.7-19.5c-1.8-2.2-4-4.3-6.8-6.1c-11.2-7.2-22.8-1.7-25.9,0"/>
			<path class="st3" d="M517.2,105.4c5.7-5.8,5.6-15.1-0.2-20.7c-5.8-5.7-15.1-5.6-20.7,0.2"/>
			<line class="st77" x1="496.9" y1="83.9" x2="518.2" y2="104.7"/>
		</g>
		<line class="st76" x1="541.4" y1="160.8" x2="541.4" y2="174.4"/>
		<line class="st76" x1="554.2" y1="167.6" x2="541.4" y2="167.6"/>
	</g>
	<rect x="374.2" y="58.4" class="st78" width="93.6" height="159.6"/>
	<line class="st79" x1="390.9" y1="75.6" x2="390.9" y2="139.7"/>
	<line class="st79" x1="408.8" y1="121.2" x2="408.8" y2="185.3"/>
	<line class="st79" x1="428.8" y1="75.6" x2="428.8" y2="139.7"/>
	<line class="st79" x1="448.9" y1="154.5" x2="448.9" y2="218.6"/>
	<path class="st76" d="M384.4,64.9c-4.6,0-8.2-3.7-8.2-8.2s3.7-8.2,8.2-8.2s8.2,3.7,8.2,8.2"/>
	<path class="st76" d="M408.1,64.9c-4.6,0-8.2-3.7-8.2-8.2s3.7-8.2,8.2-8.2s8.2,3.7,8.2,8.2"/>
	<path class="st76" d="M431.9,64.9c-4.6,0-8.2-3.7-8.2-8.2s3.7-8.2,8.2-8.2s8.2,3.7,8.2,8.2"/>
	<path class="st76" d="M455.6,64.9c-4.6,0-8.2-3.7-8.2-8.2s3.7-8.2,8.2-8.2s8.2,3.7,8.2,8.2"/>
	<line class="st80" x1="389.1" y1="58.4" x2="396.8" y2="58.4"/>
	<line class="st80" x1="412" y1="58.4" x2="419.7" y2="58.4"/>
	<line class="st80" x1="434.4" y1="58.4" x2="442.1" y2="58.4"/>
	<line class="st80" x1="458" y1="58.4" x2="465.7" y2="58.4"/>
	<line class="st81" x1="370.2" y1="218.9" x2="577.1" y2="218.9"/>
	<path class="st25" d="M506,289.2l6.6,9c1.3,1.8,3.9,2.2,5.7,0.9l0.5-0.3c1.8-1.3,2.2-3.9,0.9-5.7l-4.3-5.8"/>
	<path class="st25" d="M432,287.2l-4.3,5.8c-1.3,1.8-0.9,4.3,0.9,5.7l0.5,0.3c1.8,1.3,4.3,0.9,5.7-0.9l6.6-9"/>
</g>
<circle class="st32" cx="869.4" cy="276.5" r="10.2"/>
<circle class="st32" cx="341.8" cy="276.5" r="10.2"/>
</svg>
