<?xml version="1.0" encoding="utf-8"?>
<!-- Generator: Adobe Illustrator 21.0.0, SVG Export Plug-In . SVG Version: 6.00 Build 0)  -->
<svg version="1.1" id="Layer_1" xmlns="http://www.w3.org/2000/svg" xmlns:xlink="http://www.w3.org/1999/xlink" x="0px" y="0px"
	 viewBox="0 0 2327.3 320.9" style="enable-background:new 0 0 2327.3 320.9;" xml:space="preserve">
<style type="text/css">
	.st0{fill:none;}
	.st1{fill:#C5E8EF;}
	.st2{fill:none;stroke:#F1F2F2;stroke-width:2;stroke-miterlimit:10;}
	.st3{fill:#E6E7E8;}
	.st4{opacity:0.6;}
	.st5{fill:#FFFFFF;}
	.st6{fill:none;stroke:#FFFFFF;stroke-width:5;stroke-miterlimit:10;}
	.st7{fill:#CFE5AE;}
	.st8{fill:#C2B59B;}
	.st9{fill:#A97C50;}
	.st10{fill:#8DC63F;}
	.st11{opacity:0.7;}
	.st12{fill:#DAF0F3;}
	.st13{fill:#009444;}
	.st14{fill:#808285;}
	.st15{fill:#D1D3D4;}
	.st16{fill:#6D6E71;}
	.st17{fill:#EFE5D8;}
	.st18{opacity:0.3;fill:#DAF0F3;}
	.st19{opacity:0.4;}
	.st20{fill:#A7A9AC;}
	.st21{fill:none;stroke:#FFFFFF;stroke-width:2;stroke-miterlimit:10;}
	.st22{fill:#FFE6CB;}
	.st23{fill:#C49A6C;}
	.st24{fill:#F1F2F2;}
	.st25{fill:#BCBEC0;}
	.st26{fill:#76CFEE;}
	.st27{fill:#0AABD6;}
	.st28{fill:url(#);}
	.st29{opacity:0.6;fill:url(#New_Pattern_Swatch_4);}
	.st30{opacity:0.4;fill:url(#New_Pattern);}
	.st31{fill:#0AABD6;stroke:#76CFEE;stroke-width:4;stroke-linecap:round;stroke-miterlimit:10;}
	.st32{fill:none;stroke:#A7A9AC;stroke-width:0.5;stroke-miterlimit:10;}
	.st33{fill:#F15A29;}
	.st34{fill:none;stroke:#F7941D;stroke-width:2;stroke-miterlimit:10;}
	.st35{fill:none;stroke:#F7941D;stroke-width:2;stroke-miterlimit:10;stroke-dasharray:2.009091e-02,1.999,2.0091,0;}
	.st36{fill:none;stroke:#F7941D;stroke-width:2;stroke-miterlimit:10;stroke-dasharray:2.0091,1.999,2.009091e-02,1.999,2.0091,0;}
	.st37{fill:none;stroke:#F7941D;stroke-width:2;stroke-miterlimit:10;stroke-dasharray:1.982516e-02,5.9376,1.9825,0;}
	
		.st38{fill:none;stroke:#F7941D;stroke-width:2;stroke-miterlimit:10;stroke-dasharray:5.9475,1.9726,1.982516e-02,5.9376,1.9825,0;}
	.st39{fill:none;stroke:#F7941D;stroke-width:2;stroke-miterlimit:10;stroke-dasharray:1.920795e-02,1.9112,1.9208,0;}
	
		.st40{fill:none;stroke:#F7941D;stroke-width:2;stroke-miterlimit:10;stroke-dasharray:1.9208,1.9112,1.920795e-02,1.9112,1.9208,0;}
	.st41{clip-path:url(#SVGID_2_);}
	.st42{opacity:0.2;}
	.st43{clip-path:url(#SVGID_4_);}
	.st44{clip-path:url(#SVGID_6_);}
	.st45{clip-path:url(#SVGID_8_);}
	.st46{clip-path:url(#SVGID_10_);}
	.st47{clip-path:url(#SVGID_12_);}
	.st48{clip-path:url(#SVGID_14_);}
	.st49{clip-path:url(#SVGID_16_);}
	.st50{fill:#FFFFFF;stroke:#000000;stroke-miterlimit:10;}
	.st51{fill:#F7941D;}
	.st52{fill:none;stroke:#FFFFFF;stroke-width:8;stroke-linecap:round;stroke-miterlimit:10;}
	.st53{fill:none;stroke:#939598;stroke-width:4;stroke-linecap:round;stroke-linejoin:round;stroke-miterlimit:10;}
	.st54{fill:#808285;stroke:#FFFFFF;stroke-width:8;stroke-linecap:round;stroke-linejoin:round;stroke-miterlimit:10;}
	.st55{fill:#6D6E71;stroke:#FFFFFF;stroke-width:8;stroke-linejoin:round;stroke-miterlimit:10;}
	.st56{fill:#FBB040;stroke:#FFFFFF;stroke-width:8;stroke-linejoin:round;stroke-miterlimit:10;}
	.st57{fill:#808285;stroke:#FFFFFF;stroke-width:8;stroke-linejoin:round;stroke-miterlimit:10;}
	.st58{fill:none;stroke:#FFFFFF;stroke-width:10;stroke-linecap:round;stroke-linejoin:round;stroke-miterlimit:10;}
	.st59{fill:none;stroke:#FFFFFF;stroke-width:8;stroke-linecap:round;stroke-linejoin:round;stroke-miterlimit:10;}
	.st60{fill:none;stroke:#FFFFFF;stroke-width:8;stroke-linejoin:round;stroke-miterlimit:10;}
	.st61{fill:#F15A29;stroke:#FFFFFF;stroke-width:8;stroke-linejoin:round;stroke-miterlimit:10;}
	.st62{fill:#009444;stroke:#FFFFFF;stroke-width:8;stroke-linejoin:round;stroke-miterlimit:10;}
	.st63{fill:#8DC63F;stroke:#FFFFFF;stroke-width:8;stroke-linejoin:round;stroke-miterlimit:10;}
	.st64{fill:#FBB040;}
	.st65{fill:#BCBEC0;stroke:#FFFFFF;stroke-width:8;stroke-linejoin:round;stroke-miterlimit:10;}
	.st66{fill:#E6E7E8;stroke:#FFFFFF;stroke-width:8;stroke-linejoin:round;stroke-miterlimit:10;}
	.st67{fill:#FCB32F;}
	.st68{fill:#EF4136;}
	.st69{opacity:0.5;fill:#F1F2F2;}
	.st70{opacity:0.3;fill:#F1F2F2;}
	.st71{opacity:0.7;fill:#FFFFFF;}
	.st72{fill:none;stroke:#F7941D;stroke-width:3;stroke-linecap:round;stroke-miterlimit:10;}
	.st73{fill:none;stroke:#009444;stroke-linecap:round;stroke-miterlimit:10;}
	.st74{fill:#8C643E;}
	.st75{fill:none;stroke:#808285;stroke-width:4;stroke-linecap:round;stroke-miterlimit:10;}
	.st76{fill:none;stroke:#D1D3D4;stroke-width:4;stroke-linecap:round;stroke-miterlimit:10;}
	.st77{fill:#939598;stroke:#D1D3D4;stroke-width:4;stroke-linecap:round;stroke-miterlimit:10;}
	.st78{fill:#FCB32F;stroke:#FCB32F;stroke-width:4;stroke-linecap:round;stroke-miterlimit:10;}
	.st79{fill:none;stroke:#F7941D;stroke-width:4;stroke-linecap:round;stroke-miterlimit:10;}
	.st80{fill:none;stroke:#009444;stroke-width:4;stroke-linecap:round;stroke-miterlimit:10;}
	.st81{fill:#C5E8EF;stroke:#F7941D;stroke-width:4;stroke-linecap:round;stroke-miterlimit:10;}
	.st82{fill:#939598;stroke:#D1D3D4;stroke-width:7;stroke-linecap:round;stroke-miterlimit:10;}
	.st83{fill:none;stroke:#76CFEE;stroke-width:4;stroke-linecap:round;stroke-miterlimit:10;}
	.st84{fill:#E6E7E8;stroke:#808285;stroke-width:4;stroke-linecap:round;stroke-miterlimit:10;}
	.st85{fill:none;stroke:#BCBEC0;stroke-width:7;stroke-linecap:round;stroke-miterlimit:10;}
	.st86{fill:none;stroke:#E6E7E8;stroke-width:2;stroke-miterlimit:10;}
	.st87{opacity:0.7;fill:#DAF0F3;}
	.st88{fill:#BCBEC0;stroke:#BCBEC0;stroke-width:8;stroke-linejoin:round;stroke-miterlimit:10;}
	.st89{fill:none;stroke:#76CFEE;stroke-width:8;stroke-linejoin:round;stroke-miterlimit:10;}
	.st90{fill:#0AABD6;stroke:#0AABD6;stroke-width:8;stroke-linejoin:round;stroke-miterlimit:10;}
	.st91{fill:#808285;stroke:#808285;stroke-width:8;stroke-linejoin:round;stroke-miterlimit:10;}
	.st92{fill:none;stroke:#76CFEE;stroke-width:8;stroke-linecap:round;stroke-linejoin:round;stroke-miterlimit:10;}
	.st93{fill:none;stroke:#FFFFFF;stroke-width:3;stroke-linecap:round;stroke-linejoin:round;stroke-miterlimit:10;}
	.st94{fill:#8DC63F;stroke:#8DC63F;stroke-width:3;stroke-miterlimit:10;}
	.st95{fill:none;stroke:#8DC63F;stroke-width:3;stroke-linecap:round;stroke-linejoin:round;stroke-miterlimit:10;}
	.st96{fill:#009444;stroke:#009444;stroke-width:3;stroke-miterlimit:10;}
	.st97{fill:none;stroke:#8DC63F;stroke-width:3;stroke-linecap:round;stroke-miterlimit:10;}
</style>
<pattern  x="-87.7" y="-3551.9" width="47.7" height="47.7" patternUnits="userSpaceOnUse" id="New_Pattern" viewBox="0 -47.7 47.7 47.7" style="overflow:visible;">
	<g>
		<rect y="-47.7" class="st0" width="47.7" height="47.7"/>
		<rect x="0.1" y="-47.7" class="st1" width="46.7" height="46.7"/>
		<line class="st2" x1="23.5" y1="-47.7" x2="23.5" y2="-1"/>
		<line class="st2" x1="46.7" y1="-47.7" x2="46.7" y2="-1"/>
		<line class="st2" x1="0.1" y1="-10.3" x2="46.8" y2="-10.3"/>
		<line class="st2" x1="0" y1="-1" x2="46.7" y2="-1"/>
		<line class="st2" x1="0.1" y1="-29" x2="46.8" y2="-29"/>
		<line class="st2" x1="0.1" y1="-19.7" x2="46.8" y2="-19.7"/>
		<line class="st2" x1="0.1" y1="-38.3" x2="46.8" y2="-38.3"/>
	</g>
</pattern>
<pattern  x="-87.7" y="-3551.9" width="47.7" height="47.7" patternUnits="userSpaceOnUse" id="New_Pattern_Swatch_4" viewBox="0 -47.7 47.7 47.7" style="overflow:visible;">
	<g>
		<rect y="-47.7" class="st0" width="47.7" height="47.7"/>
		<rect x="0.1" y="-47.7" class="st3" width="46.7" height="46.7"/>
		<line class="st2" x1="9.5" y1="-47.7" x2="9.5" y2="-1"/>
		<line class="st2" x1="28.1" y1="-47.7" x2="28.1" y2="-1"/>
		<line class="st2" x1="18.8" y1="-47.7" x2="18.8" y2="-1"/>
		<line class="st2" x1="37.5" y1="-47.7" x2="37.5" y2="-1"/>
		<line class="st2" x1="46.7" y1="-47.7" x2="46.7" y2="-1"/>
		<line class="st2" x1="0.1" y1="-10.3" x2="46.8" y2="-10.3"/>
		<line class="st2" x1="0" y1="-1" x2="46.7" y2="-1"/>
		<line class="st2" x1="0.1" y1="-29" x2="46.8" y2="-29"/>
		<line class="st2" x1="0.1" y1="-19.7" x2="46.8" y2="-19.7"/>
		<line class="st2" x1="0.1" y1="-38.3" x2="46.8" y2="-38.3"/>
	</g>
</pattern>
<rect x="0" y="-1" class="st1" width="724.9" height="311.5"/>
<path class="st70" d="M410.6,86.2c-12.2,0-15.9,0-15.9,0s-8.1,0-7.9-5.2c0.1-5.1,3.4-6.9,6.5-6.9c0,0-2.1-7.9,4.2-12.4
	c6.3-4.4,12.8-0.5,14.7,2c0,0,5.6-2.3,9,0.1c3.4,2.5,3.3,6,3,7.6c0,0,9.4-0.5,9.3,7.9c-0.1,8.5-12.1,6.9-12.1,6.9L410.6,86.2z"/>
<rect y="305.1" class="st13" width="724.9" height="16.3"/>
<g>
	<rect x="1601.4" y="-1" class="st1" width="724.9" height="311.5"/>
	<rect x="1601.4" y="305.1" class="st13" width="724.9" height="16.3"/>
</g>
<g>
	<rect x="733.1" y="149.6" class="st29" width="500.4" height="156.1"/>
	<rect x="733" y="1.4" class="st29" width="500.4" height="99.7"/>
	<rect x="733.1" y="101.1" class="st30" width="500.4" height="48.5"/>
</g>
<ellipse class="st25" cx="1133.5" cy="124.6" rx="37.8" ry="45.1"/>
<line class="st31" x1="918.3" y1="113.6" x2="909.1" y2="123.6"/>
<path class="st5" d="M1005.8,226.3h-93.5h0h-93.5c0,0,5.4,53.8,51.8,66.8l-4.3,5.8c-1.3,1.8-0.9,4.3,0.9,5.7l0.5,0.3
	c1.8,1.3,4.3,0.9,5.7-0.9l6.6-9c3.8,0.6,7.9,0.9,12.2,0.9c1.5,0,3,0,4.4,0c6.3,0,11.5,0,15.7,0c0,0,0,0,0,0c11.9,0,15.8,0,15.7,0
	c1.4,0,2.9,0,4.4,0c4.3,0,8.4-0.3,12.2-0.9l6.6,9c1.3,1.8,3.9,2.2,5.7,0.9l0.5-0.3c1.8-1.3,2.2-3.9,0.9-5.7l-4.3-5.8
	C1000.3,280.1,1005.8,226.3,1005.8,226.3z"/>
<line class="st75" x1="808.9" y1="59" x2="1015.7" y2="59"/>
<g>
	<g>
		<path class="st76" d="M995,224V117.1c0-7.1-2.3-14-6.7-19.5c-1.8-2.2-4-4.3-6.8-6.1c-11.2-7.2-22.8-1.7-25.9,0"/>
		<path class="st3" d="M955.7,111.4c5.7-5.8,5.6-15.1-0.2-20.7c-5.8-5.7-15.1-5.6-20.7,0.2"/>
		<line class="st77" x1="935.5" y1="89.8" x2="956.7" y2="110.7"/>
	</g>
	<line class="st76" x1="980" y1="166.8" x2="980" y2="180.3"/>
	<line class="st76" x1="992.8" y1="173.5" x2="980" y2="173.5"/>
</g>
<rect x="812.7" y="64.4" class="st78" width="93.6" height="159.6"/>
<line class="st79" x1="829.4" y1="81.5" x2="829.4" y2="145.6"/>
<line class="st79" x1="847.3" y1="127.1" x2="847.3" y2="191.2"/>
<line class="st79" x1="867.3" y1="81.5" x2="867.3" y2="145.6"/>
<line class="st79" x1="887.4" y1="160.4" x2="887.4" y2="224.5"/>
<line class="st31" x1="948.5" y1="113.6" x2="940.5" y2="123.3"/>
<line class="st31" x1="930.3" y1="130.7" x2="923.9" y2="141"/>
<line class="st31" x1="939.7" y1="106.3" x2="927.1" y2="120.1"/>
<line class="st31" x1="932" y1="97.1" x2="922.3" y2="105.2"/>
<path class="st76" d="M823,70.8c-4.6,0-8.2-3.7-8.2-8.2s3.7-8.2,8.2-8.2s8.2,3.7,8.2,8.2"/>
<path class="st76" d="M846.7,70.8c-4.6,0-8.2-3.7-8.2-8.2s3.7-8.2,8.2-8.2s8.2,3.7,8.2,8.2"/>
<path class="st76" d="M870.4,70.8c-4.6,0-8.2-3.7-8.2-8.2s3.7-8.2,8.2-8.2s8.2,3.7,8.2,8.2"/>
<path class="st76" d="M894.1,70.8c-4.6,0-8.2-3.7-8.2-8.2s3.7-8.2,8.2-8.2s8.2,3.7,8.2,8.2"/>
<line class="st81" x1="827.7" y1="64.4" x2="835.4" y2="64.4"/>
<line class="st81" x1="850.5" y1="64.4" x2="858.2" y2="64.4"/>
<line class="st81" x1="872.9" y1="64.4" x2="880.6" y2="64.4"/>
<line class="st81" x1="896.5" y1="64.4" x2="904.2" y2="64.4"/>
<line class="st82" x1="808.8" y1="224.9" x2="1015.6" y2="224.9"/>
<path class="st25" d="M944.5,295.1l6.6,9c1.3,1.8,3.9,2.2,5.7,0.9l0.5-0.3c1.8-1.3,2.2-3.9,0.9-5.7l-4.3-5.8"/>
<path class="st25" d="M870.6,293.1l-4.3,5.8c-1.3,1.8-0.9,4.3,0.9,5.7l0.5,0.3c1.8,1.3,4.3,0.9,5.7-0.9l6.6-9"/>
<line class="st83" x1="947.8" y1="199.5" x2="947.8" y2="205.3"/>
<line class="st84" x1="872.9" y1="59" x2="880.6" y2="59"/>
<line class="st84" x1="897.6" y1="59" x2="905.3" y2="59"/>
<line class="st84" x1="849.5" y1="59" x2="857.2" y2="59"/>
<line class="st84" x1="826.8" y1="59" x2="834.4" y2="59"/>
<ellipse class="st24" cx="1133.9" cy="123.8" rx="32" ry="38.1"/>
<rect x="1123.2" y="213" class="st25" width="21.6" height="91.7"/>
<path class="st5" d="M1164.6,201c0,15-13.7,27.2-30.6,27.2s-30.6-12.2-30.6-27.2"/>
<line class="st85" x1="1133.5" y1="201" x2="1133.5" y2="180.3"/>
<line class="st85" x1="1119" y1="201" x2="1119" y2="189"/>
<line class="st85" x1="1146.9" y1="201" x2="1146.9" y2="189"/>
<line class="st82" x1="1097.2" y1="201" x2="1170.7" y2="201"/>
<g>
	<line class="st86" x1="1119.6" y1="113.2" x2="1126.1" y2="106.7"/>
	<line class="st86" x1="1113.7" y1="129.8" x2="1136.6" y2="106.9"/>
	<line class="st86" x1="1120.8" y1="135.6" x2="1136.2" y2="120.3"/>
</g>
<rect x="724.9" y="305.1" class="st5" width="431.2" height="16.3"/>
<rect x="724.7" y="1.8" class="st3" width="13.9" height="319.6"/>
<rect x="1223.1" y="0.6" class="st3" width="13.9" height="319.6"/>
<rect x="1591.1" y="0.6" class="st3" width="13.9" height="319.6"/>
<g>
	<g>
		<line class="st72" x1="2080.3" y1="106.2" x2="2165.3" y2="106.2"/>
		<line class="st72" x1="2088.7" y1="214" x2="2156.9" y2="214"/>
		<line class="st72" x1="2085.4" y1="160.1" x2="2160.2" y2="160.1"/>
		<line class="st72" x1="2088.7" y1="106.2" x2="2101.3" y2="243.3"/>
		<line class="st72" x1="2157.9" y1="106.2" x2="2145.3" y2="243.3"/>
	</g>
	<g>
		<path class="st9" d="M2143.3,305.6h-41c-0.8,0-1.4-0.6-1.5-1.4l-7.2-56.4c-0.1-0.9,0.6-1.7,1.5-1.7h55.3c0.9,0,1.7,0.8,1.5,1.7
			l-7.2,56.4C2144.7,305,2144.1,305.6,2143.3,305.6z"/>
		<path class="st23" d="M2155.8,252.1h-66.1c-0.6,0-1-0.4-1-1v-15.4c0-0.6,0.4-1,1-1h66.1c0.6,0,1,0.4,1,1v15.4
			C2156.8,251.6,2156.4,252.1,2155.8,252.1z"/>
	</g>
</g>
<g>
	<g>
		<g>
			<line class="st73" x1="2061.1" y1="277.4" x2="2059.1" y2="253.6"/>
			<line class="st73" x1="2060.9" y1="275.3" x2="2058.5" y2="274.2"/>
			<line class="st73" x1="2060.7" y1="272.5" x2="2058" y2="271.1"/>
			<line class="st73" x1="2060.4" y1="269.6" x2="2058.5" y2="268.5"/>
			<line class="st73" x1="2059.9" y1="266.8" x2="2057.9" y2="265.6"/>
			<line class="st73" x1="2059.8" y1="264" x2="2058.3" y2="263"/>
			<line class="st73" x1="2059.2" y1="261.1" x2="2057.7" y2="259.8"/>
			<line class="st73" x1="2059" y1="257.8" x2="2057.8" y2="256.9"/>
			<line class="st73" x1="2059.1" y1="255.5" x2="2057.6" y2="254.5"/>
			<line class="st73" x1="2059.2" y1="254.9" x2="2060.6" y2="253.7"/>
			<line class="st73" x1="2059.3" y1="256.8" x2="2061.2" y2="255.5"/>
			<line class="st73" x1="2059.6" y1="259.4" x2="2061" y2="258.2"/>
			<line class="st73" x1="2059.8" y1="262.5" x2="2061.7" y2="261.2"/>
			<line class="st73" x1="2060" y1="265.2" x2="2061.8" y2="264.1"/>
			<line class="st73" x1="2060.3" y1="267.8" x2="2062.3" y2="266.7"/>
			<line class="st73" x1="2060.5" y1="270.9" x2="2062.3" y2="269.4"/>
			<line class="st73" x1="2060.8" y1="274" x2="2062.9" y2="272.5"/>
			<line class="st73" x1="2061.2" y1="276.3" x2="2063.4" y2="274.8"/>
		</g>
		<g>
			<line class="st73" x1="2064.3" y1="276.7" x2="2065.3" y2="248"/>
			<line class="st73" x1="2064.4" y1="274.2" x2="2061.6" y2="272.5"/>
			<line class="st73" x1="2064.5" y1="270.8" x2="2061.5" y2="268.7"/>
			<line class="st73" x1="2064.6" y1="267.3" x2="2062.5" y2="265.6"/>
			<line class="st73" x1="2064.4" y1="263.8" x2="2062.2" y2="262.1"/>
			<line class="st73" x1="2064.7" y1="260.4" x2="2063" y2="259"/>
			<line class="st73" x1="2064.4" y1="256.9" x2="2062.8" y2="255.2"/>
			<line class="st73" x1="2064.6" y1="252.9" x2="2063.3" y2="251.7"/>
			<line class="st73" x1="2065.1" y1="250.2" x2="2063.4" y2="248.8"/>
			<line class="st73" x1="2065.3" y1="249.4" x2="2067.2" y2="248.2"/>
			<line class="st73" x1="2065.2" y1="251.8" x2="2067.6" y2="250.4"/>
			<line class="st73" x1="2065.1" y1="254.9" x2="2067" y2="253.7"/>
			<line class="st73" x1="2064.9" y1="258.7" x2="2067.4" y2="257.4"/>
			<line class="st73" x1="2064.8" y1="262" x2="2067.1" y2="260.8"/>
			<line class="st73" x1="2064.7" y1="265.2" x2="2067.3" y2="264.1"/>
			<line class="st73" x1="2064.6" y1="268.9" x2="2066.9" y2="267.4"/>
			<line class="st73" x1="2064.4" y1="272.6" x2="2067.2" y2="271.1"/>
			<line class="st73" x1="2064.6" y1="275.5" x2="2067.4" y2="273.9"/>
		</g>
		<g>
			<line class="st73" x1="2068.6" y1="277.1" x2="2071" y2="250.5"/>
			<line class="st73" x1="2068.8" y1="274.7" x2="2066.4" y2="273"/>
			<line class="st73" x1="2069.1" y1="271.6" x2="2066.5" y2="269.5"/>
			<line class="st73" x1="2069.4" y1="268.3" x2="2067.5" y2="266.7"/>
			<line class="st73" x1="2069.3" y1="265.2" x2="2067.4" y2="263.4"/>
			<line class="st73" x1="2069.8" y1="262" x2="2068.3" y2="260.7"/>
			<line class="st73" x1="2069.7" y1="258.7" x2="2068.2" y2="257.1"/>
			<line class="st73" x1="2070.1" y1="255" x2="2068.9" y2="253.8"/>
			<line class="st73" x1="2070.7" y1="252.6" x2="2069.1" y2="251.2"/>
			<line class="st73" x1="2070.8" y1="251.9" x2="2072.7" y2="250.9"/>
			<line class="st73" x1="2070.6" y1="254.1" x2="2072.9" y2="252.9"/>
			<line class="st73" x1="2070.4" y1="257" x2="2072.2" y2="255.9"/>
			<line class="st73" x1="2070.1" y1="260.5" x2="2072.4" y2="259.4"/>
			<line class="st73" x1="2069.8" y1="263.5" x2="2071.9" y2="262.5"/>
			<line class="st73" x1="2069.6" y1="266.4" x2="2072" y2="265.5"/>
			<line class="st73" x1="2069.3" y1="269.8" x2="2071.5" y2="268.5"/>
			<line class="st73" x1="2069" y1="273.3" x2="2071.6" y2="272"/>
			<line class="st73" x1="2069" y1="275.9" x2="2071.6" y2="274.7"/>
		</g>
		<g>
			<line class="st73" x1="2057.4" y1="277.4" x2="2053.5" y2="258.2"/>
			<line class="st73" x1="2057.1" y1="275.7" x2="2055" y2="275"/>
			<line class="st73" x1="2056.6" y1="273.4" x2="2054.3" y2="272.5"/>
			<line class="st73" x1="2056.1" y1="271" x2="2054.5" y2="270.3"/>
			<line class="st73" x1="2055.4" y1="268.8" x2="2053.7" y2="268"/>
			<line class="st73" x1="2055.1" y1="266.5" x2="2053.8" y2="265.9"/>
			<line class="st73" x1="2054.3" y1="264.2" x2="2053" y2="263.4"/>
			<line class="st73" x1="2053.8" y1="261.6" x2="2052.7" y2="261"/>
			<line class="st73" x1="2053.7" y1="259.7" x2="2052.4" y2="259.1"/>
			<line class="st73" x1="2053.7" y1="259.2" x2="2054.8" y2="258.1"/>
			<line class="st73" x1="2054" y1="260.8" x2="2055.4" y2="259.5"/>
			<line class="st73" x1="2054.4" y1="262.8" x2="2055.5" y2="261.7"/>
			<line class="st73" x1="2055" y1="265.4" x2="2056.4" y2="264.1"/>
			<line class="st73" x1="2055.4" y1="267.5" x2="2056.7" y2="266.4"/>
			<line class="st73" x1="2055.9" y1="269.7" x2="2057.4" y2="268.5"/>
			<line class="st73" x1="2056.4" y1="272.1" x2="2057.7" y2="270.7"/>
			<line class="st73" x1="2056.9" y1="274.6" x2="2058.5" y2="273.2"/>
			<line class="st73" x1="2057.5" y1="276.5" x2="2059" y2="275"/>
		</g>
		<g>
			<line class="st73" x1="2072.7" y1="277.7" x2="2076.1" y2="258.4"/>
			<line class="st73" x1="2073" y1="276" x2="2071.3" y2="274.6"/>
			<line class="st73" x1="2073.4" y1="273.7" x2="2071.6" y2="272"/>
			<line class="st73" x1="2073.8" y1="271.3" x2="2072.5" y2="270"/>
			<line class="st73" x1="2074" y1="269" x2="2072.7" y2="267.6"/>
			<line class="st73" x1="2074.5" y1="266.7" x2="2073.5" y2="265.7"/>
			<line class="st73" x1="2074.7" y1="264.3" x2="2073.7" y2="263"/>
			<line class="st73" x1="2075.1" y1="261.6" x2="2074.4" y2="260.7"/>
			<line class="st73" x1="2075.8" y1="259.9" x2="2074.7" y2="258.8"/>
			<line class="st73" x1="2075.9" y1="259.4" x2="2077.3" y2="258.8"/>
			<line class="st73" x1="2075.6" y1="261" x2="2077.4" y2="260.3"/>
			<line class="st73" x1="2075.3" y1="263.1" x2="2076.7" y2="262.4"/>
			<line class="st73" x1="2074.8" y1="265.6" x2="2076.6" y2="265"/>
			<line class="st73" x1="2074.4" y1="267.8" x2="2076.1" y2="267.2"/>
			<line class="st73" x1="2074.1" y1="269.9" x2="2075.9" y2="269.4"/>
			<line class="st73" x1="2073.6" y1="272.4" x2="2075.4" y2="271.6"/>
			<line class="st73" x1="2073.2" y1="274.9" x2="2075.2" y2="274.2"/>
			<line class="st73" x1="2073.1" y1="276.9" x2="2075" y2="276.1"/>
		</g>
	</g>
	<g>
		<path class="st9" d="M2073.4,305.7h-17.2c-0.3,0-0.6-0.2-0.6-0.6l-3-23.6c0-0.4,0.3-0.7,0.6-0.7h23.2c0.4,0,0.7,0.3,0.6,0.7
			l-3,23.6C2074,305.4,2073.8,305.7,2073.4,305.7z"/>
		<path class="st23" d="M2078.1,283.3h-26.5c-0.6,0-1-0.4-1-1V277c0-0.6,0.4-1,1-1h26.5c0.6,0,1,0.4,1,1v5.3
			C2079.1,282.8,2078.7,283.3,2078.1,283.3z"/>
	</g>
</g>
<g>
	<g>
		<line class="st72" x1="478.5" y1="106.2" x2="563.4" y2="106.2"/>
		<line class="st72" x1="486.8" y1="214" x2="555" y2="214"/>
		<line class="st72" x1="483.5" y1="160.1" x2="558.4" y2="160.1"/>
		<line class="st72" x1="486.8" y1="106.2" x2="499.5" y2="243.3"/>
		<line class="st72" x1="556" y1="106.2" x2="543.4" y2="243.3"/>
	</g>
	<g>
		<path class="st9" d="M541.4,305.6h-41c-0.8,0-1.4-0.6-1.5-1.4l-7.2-56.4c-0.1-0.9,0.6-1.7,1.5-1.7h55.3c0.9,0,1.7,0.8,1.5,1.7
			l-7.2,56.4C542.9,305,542.2,305.6,541.4,305.6z"/>
		<path class="st23" d="M554,252.1h-66.1c-0.6,0-1-0.4-1-1v-15.4c0-0.6,0.4-1,1-1H554c0.6,0,1,0.4,1,1v15.4
			C555,251.6,554.5,252.1,554,252.1z"/>
	</g>
</g>
<g>
	<g>
		<g>
			<line class="st73" x1="459.2" y1="277.3" x2="457.2" y2="253.5"/>
			<line class="st73" x1="459.1" y1="275.2" x2="456.7" y2="274.1"/>
			<line class="st73" x1="458.8" y1="272.3" x2="456.2" y2="270.9"/>
			<line class="st73" x1="458.6" y1="269.5" x2="456.7" y2="268.3"/>
			<line class="st73" x1="458" y1="266.7" x2="456.1" y2="265.4"/>
			<line class="st73" x1="457.9" y1="263.8" x2="456.4" y2="262.9"/>
			<line class="st73" x1="457.4" y1="260.9" x2="455.8" y2="259.7"/>
			<line class="st73" x1="457.1" y1="257.6" x2="455.9" y2="256.8"/>
			<line class="st73" x1="457.3" y1="255.4" x2="455.7" y2="254.4"/>
			<line class="st73" x1="457.3" y1="254.7" x2="458.8" y2="253.6"/>
			<line class="st73" x1="457.5" y1="256.7" x2="459.3" y2="255.3"/>
			<line class="st73" x1="457.7" y1="259.3" x2="459.2" y2="258.1"/>
			<line class="st73" x1="458" y1="262.4" x2="459.9" y2="261.1"/>
			<line class="st73" x1="458.2" y1="265.1" x2="459.9" y2="263.9"/>
			<line class="st73" x1="458.4" y1="267.7" x2="460.4" y2="266.6"/>
			<line class="st73" x1="458.7" y1="270.8" x2="460.5" y2="269.3"/>
			<line class="st73" x1="459" y1="273.9" x2="461.1" y2="272.4"/>
			<line class="st73" x1="459.4" y1="276.2" x2="461.5" y2="274.7"/>
		</g>
		<g>
			<line class="st73" x1="462.4" y1="276.6" x2="463.5" y2="247.9"/>
			<line class="st73" x1="462.5" y1="274.1" x2="459.8" y2="272.4"/>
			<line class="st73" x1="462.7" y1="270.6" x2="459.7" y2="268.6"/>
			<line class="st73" x1="462.8" y1="267.1" x2="460.6" y2="265.5"/>
			<line class="st73" x1="462.5" y1="263.7" x2="460.4" y2="262"/>
			<line class="st73" x1="462.8" y1="260.3" x2="461.2" y2="258.9"/>
			<line class="st73" x1="462.6" y1="256.8" x2="460.9" y2="255.1"/>
			<line class="st73" x1="462.8" y1="252.8" x2="461.5" y2="251.5"/>
			<line class="st73" x1="463.3" y1="250.1" x2="461.6" y2="248.7"/>
			<line class="st73" x1="463.4" y1="249.3" x2="465.3" y2="248.1"/>
			<line class="st73" x1="463.4" y1="251.7" x2="465.7" y2="250.3"/>
			<line class="st73" x1="463.2" y1="254.8" x2="465.1" y2="253.6"/>
			<line class="st73" x1="463.1" y1="258.6" x2="465.6" y2="257.3"/>
			<line class="st73" x1="463" y1="261.9" x2="465.2" y2="260.7"/>
			<line class="st73" x1="462.9" y1="265.1" x2="465.4" y2="263.9"/>
			<line class="st73" x1="462.7" y1="268.8" x2="465.1" y2="267.2"/>
			<line class="st73" x1="462.6" y1="272.5" x2="465.3" y2="271"/>
			<line class="st73" x1="462.8" y1="275.4" x2="465.5" y2="273.8"/>
		</g>
		<g>
			<line class="st73" x1="466.8" y1="277" x2="469.1" y2="250.4"/>
			<line class="st73" x1="467" y1="274.6" x2="464.5" y2="272.9"/>
			<line class="st73" x1="467.3" y1="271.4" x2="464.6" y2="269.4"/>
			<line class="st73" x1="467.6" y1="268.2" x2="465.6" y2="266.6"/>
			<line class="st73" x1="467.5" y1="265.1" x2="465.6" y2="263.3"/>
			<line class="st73" x1="467.9" y1="261.9" x2="466.5" y2="260.6"/>
			<line class="st73" x1="467.9" y1="258.6" x2="466.4" y2="257"/>
			<line class="st73" x1="468.2" y1="254.9" x2="467.1" y2="253.7"/>
			<line class="st73" x1="468.8" y1="252.5" x2="467.3" y2="251.1"/>
			<line class="st73" x1="469" y1="251.8" x2="470.8" y2="250.7"/>
			<line class="st73" x1="468.8" y1="254" x2="471.1" y2="252.8"/>
			<line class="st73" x1="468.6" y1="256.8" x2="470.4" y2="255.8"/>
			<line class="st73" x1="468.2" y1="260.4" x2="470.6" y2="259.3"/>
			<line class="st73" x1="468" y1="263.3" x2="470.1" y2="262.4"/>
			<line class="st73" x1="467.7" y1="266.3" x2="470.2" y2="265.4"/>
			<line class="st73" x1="467.4" y1="269.7" x2="469.7" y2="268.4"/>
			<line class="st73" x1="467.1" y1="273.2" x2="469.7" y2="271.9"/>
			<line class="st73" x1="467.2" y1="275.8" x2="469.8" y2="274.5"/>
		</g>
		<g>
			<line class="st73" x1="455.6" y1="277.2" x2="451.7" y2="258.1"/>
			<line class="st73" x1="455.3" y1="275.6" x2="453.2" y2="274.9"/>
			<line class="st73" x1="454.8" y1="273.3" x2="452.5" y2="272.4"/>
			<line class="st73" x1="454.3" y1="270.9" x2="452.6" y2="270.2"/>
			<line class="st73" x1="453.6" y1="268.7" x2="451.9" y2="267.9"/>
			<line class="st73" x1="453.2" y1="266.4" x2="451.9" y2="265.8"/>
			<line class="st73" x1="452.5" y1="264.1" x2="451.1" y2="263.3"/>
			<line class="st73" x1="452" y1="261.4" x2="450.9" y2="260.8"/>
			<line class="st73" x1="451.9" y1="259.6" x2="450.5" y2="259"/>
			<line class="st73" x1="451.9" y1="259.1" x2="452.9" y2="258"/>
			<line class="st73" x1="452.2" y1="260.7" x2="453.5" y2="259.4"/>
			<line class="st73" x1="452.6" y1="262.7" x2="453.7" y2="261.6"/>
			<line class="st73" x1="453.1" y1="265.3" x2="454.5" y2="264"/>
			<line class="st73" x1="453.6" y1="267.4" x2="454.9" y2="266.3"/>
			<line class="st73" x1="454" y1="269.5" x2="455.5" y2="268.4"/>
			<line class="st73" x1="454.5" y1="272" x2="455.8" y2="270.6"/>
			<line class="st73" x1="455" y1="274.5" x2="456.6" y2="273.1"/>
			<line class="st73" x1="455.6" y1="276.4" x2="457.2" y2="274.9"/>
		</g>
		<g>
			<line class="st73" x1="470.9" y1="277.6" x2="474.3" y2="258.3"/>
			<line class="st73" x1="471.2" y1="275.9" x2="469.5" y2="274.5"/>
			<line class="st73" x1="471.6" y1="273.6" x2="469.8" y2="271.9"/>
			<line class="st73" x1="472" y1="271.2" x2="470.7" y2="269.9"/>
			<line class="st73" x1="472.1" y1="268.9" x2="470.8" y2="267.5"/>
			<line class="st73" x1="472.6" y1="266.6" x2="471.7" y2="265.5"/>
			<line class="st73" x1="472.8" y1="264.2" x2="471.8" y2="262.9"/>
			<line class="st73" x1="473.3" y1="261.5" x2="472.5" y2="260.6"/>
			<line class="st73" x1="473.9" y1="259.8" x2="472.9" y2="258.7"/>
			<line class="st73" x1="474.1" y1="259.3" x2="475.5" y2="258.6"/>
			<line class="st73" x1="473.8" y1="260.9" x2="475.5" y2="260.2"/>
			<line class="st73" x1="473.4" y1="263" x2="474.8" y2="262.3"/>
			<line class="st73" x1="473" y1="265.5" x2="474.8" y2="264.8"/>
			<line class="st73" x1="472.6" y1="267.7" x2="474.2" y2="267.1"/>
			<line class="st73" x1="472.2" y1="269.8" x2="474.1" y2="269.3"/>
			<line class="st73" x1="471.8" y1="272.3" x2="473.5" y2="271.5"/>
			<line class="st73" x1="471.3" y1="274.8" x2="473.3" y2="274.1"/>
			<line class="st73" x1="471.2" y1="276.7" x2="473.2" y2="276"/>
		</g>
	</g>
	<g>
		<path class="st9" d="M471.6,305.6h-17.2c-0.3,0-0.6-0.2-0.6-0.6l-3-23.6c0-0.4,0.3-0.7,0.6-0.7h23.2c0.4,0,0.7,0.3,0.6,0.7
			l-3,23.6C472.2,305.3,471.9,305.6,471.6,305.6z"/>
		<path class="st23" d="M476.3,283.2h-26.5c-0.6,0-1-0.4-1-1v-5.3c0-0.6,0.4-1,1-1h26.5c0.6,0,1,0.4,1,1v5.3
			C477.3,282.7,476.8,283.2,476.3,283.2z"/>
	</g>
</g>
</svg>
