<?xml version="1.0" encoding="utf-8"?>
<!-- Generator: Adobe Illustrator 21.0.0, SVG Export Plug-In . SVG Version: 6.00 Build 0)  -->
<svg version="1.1" id="Layer_1" xmlns="http://www.w3.org/2000/svg" xmlns:xlink="http://www.w3.org/1999/xlink" x="0px" y="0px"
	 viewBox="0 0 2373.4 320.9" style="enable-background:new 0 0 2373.4 320.9;" xml:space="preserve">
<style type="text/css">
	.st0{fill:none;}
	.st1{fill:#C5E8EF;}
	.st2{fill:none;stroke:#F1F2F2;stroke-width:2;stroke-miterlimit:10;}
	.st3{fill:#E6E7E8;}
	.st4{fill:#EFE5D8;}
	.st5{fill:#009444;}
	.st6{opacity:0.6;}
	.st7{fill:#FFFFFF;}
	.st8{fill:none;stroke:#FFFFFF;stroke-width:5;stroke-miterlimit:10;}
	.st9{fill:#CFE5AE;}
	.st10{fill:#C2B59B;}
	.st11{fill:#A97C50;}
	.st12{fill:#8DC63F;}
	.st13{opacity:0.7;}
	.st14{fill:#DAF0F3;}
	.st15{fill:#808285;}
	.st16{fill:#D1D3D4;}
	.st17{fill:#6D6E71;}
	.st18{opacity:0.4;}
	.st19{fill:#A7A9AC;}
	.st20{fill:none;stroke:#FFFFFF;stroke-width:2;stroke-miterlimit:10;}
	.st21{fill:#FFE6CB;}
	.st22{fill:#C49A6C;}
	.st23{fill:#F1F2F2;}
	.st24{fill:#BCBEC0;}
	.st25{fill:#76CFEE;}
	.st26{fill:#0AABD6;}
	.st27{opacity:0.3;fill:#DAF0F3;}
	.st28{fill:url(#);}
	.st29{opacity:0.6;fill:url(#New_Pattern_Swatch_4);}
	.st30{opacity:0.4;fill:url(#New_Pattern);}
	.st31{fill:#0AABD6;stroke:#76CFEE;stroke-width:4;stroke-linecap:round;stroke-miterlimit:10;}
	.st32{fill:none;stroke:#A7A9AC;stroke-width:0.5;stroke-miterlimit:10;}
	.st33{fill:#F15A29;}
	.st34{fill:none;stroke:#F7941D;stroke-width:2;stroke-miterlimit:10;}
	.st35{fill:none;stroke:#F7941D;stroke-width:2;stroke-miterlimit:10;stroke-dasharray:2.009091e-02,1.999,2.0091,0;}
	.st36{fill:none;stroke:#F7941D;stroke-width:2;stroke-miterlimit:10;stroke-dasharray:2.0091,1.999,2.009091e-02,1.999,2.0091,0;}
	.st37{fill:none;stroke:#F7941D;stroke-width:2;stroke-miterlimit:10;stroke-dasharray:1.982516e-02,5.9376,1.9825,0;}
	
		.st38{fill:none;stroke:#F7941D;stroke-width:2;stroke-miterlimit:10;stroke-dasharray:5.9475,1.9726,1.982516e-02,5.9376,1.9825,0;}
	.st39{fill:none;stroke:#F7941D;stroke-width:2;stroke-miterlimit:10;stroke-dasharray:1.920795e-02,1.9112,1.9208,0;}
	
		.st40{fill:none;stroke:#F7941D;stroke-width:2;stroke-miterlimit:10;stroke-dasharray:1.9208,1.9112,1.920795e-02,1.9112,1.9208,0;}
	.st41{clip-path:url(#SVGID_2_);}
	.st42{opacity:0.2;}
	.st43{clip-path:url(#SVGID_4_);}
	.st44{clip-path:url(#SVGID_6_);}
	.st45{clip-path:url(#SVGID_8_);}
	.st46{clip-path:url(#SVGID_10_);}
	.st47{clip-path:url(#SVGID_12_);}
	.st48{clip-path:url(#SVGID_14_);}
	.st49{clip-path:url(#SVGID_16_);}
	.st50{fill:#FFFFFF;stroke:#000000;stroke-miterlimit:10;}
	.st51{fill:#F7941D;}
	.st52{fill:none;stroke:#FFFFFF;stroke-width:8;stroke-linecap:round;stroke-miterlimit:10;}
	.st53{fill:none;stroke:#939598;stroke-width:4;stroke-linecap:round;stroke-linejoin:round;stroke-miterlimit:10;}
	.st54{fill:#808285;stroke:#FFFFFF;stroke-width:8;stroke-linecap:round;stroke-linejoin:round;stroke-miterlimit:10;}
	.st55{fill:#6D6E71;stroke:#FFFFFF;stroke-width:8;stroke-linejoin:round;stroke-miterlimit:10;}
	.st56{fill:#FBB040;stroke:#FFFFFF;stroke-width:8;stroke-linejoin:round;stroke-miterlimit:10;}
	.st57{fill:#808285;stroke:#FFFFFF;stroke-width:8;stroke-linejoin:round;stroke-miterlimit:10;}
	.st58{fill:none;stroke:#FFFFFF;stroke-width:10;stroke-linecap:round;stroke-linejoin:round;stroke-miterlimit:10;}
	.st59{fill:none;stroke:#FFFFFF;stroke-width:8;stroke-linecap:round;stroke-linejoin:round;stroke-miterlimit:10;}
	.st60{fill:none;stroke:#FFFFFF;stroke-width:8;stroke-linejoin:round;stroke-miterlimit:10;}
	.st61{fill:#F15A29;stroke:#FFFFFF;stroke-width:8;stroke-linejoin:round;stroke-miterlimit:10;}
	.st62{fill:#009444;stroke:#FFFFFF;stroke-width:8;stroke-linejoin:round;stroke-miterlimit:10;}
	.st63{fill:#8DC63F;stroke:#FFFFFF;stroke-width:8;stroke-linejoin:round;stroke-miterlimit:10;}
	.st64{fill:#FBB040;}
	.st65{fill:#BCBEC0;stroke:#FFFFFF;stroke-width:8;stroke-linejoin:round;stroke-miterlimit:10;}
	.st66{fill:#E6E7E8;stroke:#FFFFFF;stroke-width:8;stroke-linejoin:round;stroke-miterlimit:10;}
	.st67{fill:#FCB32F;}
	.st68{opacity:0.5;fill:#F1F2F2;}
	.st69{opacity:0.3;fill:#F1F2F2;}
	.st70{opacity:0.7;fill:#FFFFFF;}
	.st71{fill:none;stroke:#F7941D;stroke-width:3;stroke-linecap:round;stroke-miterlimit:10;}
	.st72{fill:none;stroke:#009444;stroke-linecap:round;stroke-miterlimit:10;}
	.st73{fill:#8C643E;}
	.st74{fill:none;stroke:#808285;stroke-width:4;stroke-linecap:round;stroke-miterlimit:10;}
	.st75{fill:none;stroke:#D1D3D4;stroke-width:4;stroke-linecap:round;stroke-miterlimit:10;}
	.st76{fill:#939598;stroke:#D1D3D4;stroke-width:4;stroke-linecap:round;stroke-miterlimit:10;}
	.st77{fill:#FCB32F;stroke:#FCB32F;stroke-width:4;stroke-linecap:round;stroke-miterlimit:10;}
	.st78{fill:none;stroke:#F7941D;stroke-width:4;stroke-linecap:round;stroke-miterlimit:10;}
	.st79{fill:#C5E8EF;stroke:#F7941D;stroke-width:4;stroke-linecap:round;stroke-miterlimit:10;}
	.st80{fill:#939598;stroke:#D1D3D4;stroke-width:7;stroke-linecap:round;stroke-miterlimit:10;}
	.st81{fill:none;stroke:#76CFEE;stroke-width:4;stroke-linecap:round;stroke-miterlimit:10;}
	.st82{fill:#E6E7E8;stroke:#808285;stroke-width:4;stroke-linecap:round;stroke-miterlimit:10;}
	.st83{fill:none;stroke:#BCBEC0;stroke-width:7;stroke-linecap:round;stroke-miterlimit:10;}
	.st84{fill:none;stroke:#E6E7E8;stroke-width:2;stroke-miterlimit:10;}
	.st85{opacity:0.7;fill:#DAF0F3;}
	.st86{fill:#BCBEC0;stroke:#BCBEC0;stroke-width:8;stroke-linejoin:round;stroke-miterlimit:10;}
	.st87{fill:none;stroke:#76CFEE;stroke-width:8;stroke-linejoin:round;stroke-miterlimit:10;}
	.st88{fill:#0AABD6;stroke:#0AABD6;stroke-width:8;stroke-linejoin:round;stroke-miterlimit:10;}
	.st89{fill:#808285;stroke:#808285;stroke-width:8;stroke-linejoin:round;stroke-miterlimit:10;}
	.st90{fill:none;stroke:#76CFEE;stroke-width:8;stroke-linecap:round;stroke-linejoin:round;stroke-miterlimit:10;}
	.st91{fill:none;stroke:#FFFFFF;stroke-width:3;stroke-linecap:round;stroke-linejoin:round;stroke-miterlimit:10;}
	.st92{fill:#8DC63F;stroke:#8DC63F;stroke-width:3;stroke-miterlimit:10;}
	.st93{fill:none;stroke:#8DC63F;stroke-width:3;stroke-linecap:round;stroke-linejoin:round;stroke-miterlimit:10;}
	.st94{fill:#009444;stroke:#009444;stroke-width:3;stroke-miterlimit:10;}
	.st95{fill:none;stroke:#8DC63F;stroke-width:3;stroke-linecap:round;stroke-miterlimit:10;}
	.st96{fill:url(#SVGID_17_);}
	.st97{fill:url(#SVGID_18_);}
	.st98{fill:url(#SVGID_19_);}
	.st99{fill:#B98A59;}
</style>
<pattern  x="-217.3" y="-3712.3" width="47.7" height="47.7" patternUnits="userSpaceOnUse" id="New_Pattern" viewBox="0 -47.7 47.7 47.7" style="overflow:visible;">
	<g>
		<rect y="-47.7" class="st0" width="47.7" height="47.7"/>
		<rect x="0.1" y="-47.7" class="st1" width="46.7" height="46.7"/>
		<line class="st2" x1="23.5" y1="-47.7" x2="23.5" y2="-1"/>
		<line class="st2" x1="46.7" y1="-47.7" x2="46.7" y2="-1"/>
		<line class="st2" x1="0.1" y1="-10.3" x2="46.8" y2="-10.3"/>
		<line class="st2" x1="0" y1="-1" x2="46.7" y2="-1"/>
		<line class="st2" x1="0.1" y1="-29" x2="46.8" y2="-29"/>
		<line class="st2" x1="0.1" y1="-19.7" x2="46.8" y2="-19.7"/>
		<line class="st2" x1="0.1" y1="-38.3" x2="46.8" y2="-38.3"/>
	</g>
</pattern>
<pattern  x="-217.3" y="-3712.3" width="47.7" height="47.7" patternUnits="userSpaceOnUse" id="New_Pattern_Swatch_4" viewBox="0 -47.7 47.7 47.7" style="overflow:visible;">
	<g>
		<rect y="-47.7" class="st0" width="47.7" height="47.7"/>
		<rect x="0.1" y="-47.7" class="st3" width="46.7" height="46.7"/>
		<line class="st2" x1="9.5" y1="-47.7" x2="9.5" y2="-1"/>
		<line class="st2" x1="28.1" y1="-47.7" x2="28.1" y2="-1"/>
		<line class="st2" x1="18.8" y1="-47.7" x2="18.8" y2="-1"/>
		<line class="st2" x1="37.5" y1="-47.7" x2="37.5" y2="-1"/>
		<line class="st2" x1="46.7" y1="-47.7" x2="46.7" y2="-1"/>
		<line class="st2" x1="0.1" y1="-10.3" x2="46.8" y2="-10.3"/>
		<line class="st2" x1="0" y1="-1" x2="46.7" y2="-1"/>
		<line class="st2" x1="0.1" y1="-29" x2="46.8" y2="-29"/>
		<line class="st2" x1="0.1" y1="-19.7" x2="46.8" y2="-19.7"/>
		<line class="st2" x1="0.1" y1="-38.3" x2="46.8" y2="-38.3"/>
	</g>
</pattern>
<rect x="0" y="-1" class="st1" width="2373.4" height="311.5"/>
<rect y="305.1" class="st5" width="2373.4" height="16.3"/>
<g>
	<g>
		<pattern  id="SVGID_2_" xlink:href="#New_Pattern_Swatch_4" patternTransform="matrix(1 0 0 1 129.597 160.4326)">
		</pattern>
		<rect x="585.9" y="148.8" style="fill:url(#SVGID_2_);" width="747.6" height="164.5"/>
		<pattern  id="SVGID_4_" xlink:href="#New_Pattern_Swatch_4" patternTransform="matrix(1 0 0 1 129.597 160.4326)">
		</pattern>
		<rect x="585.6" style="fill:url(#SVGID_4_);" width="747.6" height="100.2"/>
		<pattern  id="SVGID_6_" xlink:href="#New_Pattern" patternTransform="matrix(1 0 0 1 129.597 160.4326)">
		</pattern>
		<rect x="585.9" y="100.1" style="fill:url(#SVGID_6_);" width="747.6" height="48.7"/>
	</g>
	<line class="st31" x1="829.8" y1="113.2" x2="820.6" y2="123.2"/>
	<path class="st7" d="M917.2,225.9h-93.5h0h-93.5c0,0,5.4,53.8,51.8,66.8l-4.3,5.8c-1.3,1.8-0.9,4.3,0.9,5.7l0.5,0.3
		c1.8,1.3,4.3,0.9,5.7-0.9l6.6-9c3.8,0.6,7.9,0.9,12.2,0.9c1.5,0,3,0,4.4,0c6.3,0,11.5,0,15.7,0c0,0,0,0,0,0c11.9,0,15.8,0,15.7,0
		c1.4,0,2.9,0,4.4,0c4.3,0,8.4-0.3,12.2-0.9l6.6,9c1.3,1.8,3.9,2.2,5.7,0.9l0.5-0.3c1.8-1.3,2.2-3.9,0.9-5.7l-4.3-5.8
		C911.8,279.7,917.2,225.9,917.2,225.9z"/>
	<line class="st74" x1="720.3" y1="58.6" x2="927.2" y2="58.6"/>
	<g>
		<g>
			<path class="st75" d="M906.4,223.6V116.8c0-7.1-2.3-14-6.7-19.5c-1.8-2.2-4-4.3-6.8-6.1c-11.2-7.2-22.8-1.7-25.9,0"/>
			<path class="st3" d="M867.2,111c5.7-5.8,5.6-15.1-0.2-20.7s-15.1-5.6-20.7,0.2"/>
			<line class="st76" x1="846.9" y1="89.4" x2="868.2" y2="110.3"/>
		</g>
		<line class="st75" x1="891.4" y1="166.4" x2="891.4" y2="179.9"/>
		<line class="st75" x1="904.2" y1="173.1" x2="891.4" y2="173.1"/>
	</g>
	<rect x="724.2" y="64" class="st77" width="93.6" height="159.6"/>
	<line class="st78" x1="740.9" y1="81.2" x2="740.9" y2="145.2"/>
	<line class="st78" x1="758.8" y1="126.7" x2="758.8" y2="190.8"/>
	<line class="st78" x1="778.8" y1="81.2" x2="778.8" y2="145.2"/>
	<line class="st78" x1="798.9" y1="160" x2="798.9" y2="224.1"/>
	<line class="st31" x1="860" y1="113.2" x2="851.9" y2="122.9"/>
	<line class="st31" x1="841.8" y1="130.3" x2="835.4" y2="140.6"/>
	<line class="st31" x1="851.2" y1="105.9" x2="838.6" y2="119.7"/>
	<line class="st31" x1="843.4" y1="96.7" x2="833.7" y2="104.9"/>
	<path class="st75" d="M734.4,70.4c-4.6,0-8.2-3.7-8.2-8.2s3.7-8.2,8.2-8.2c4.6,0,8.2,3.7,8.2,8.2"/>
	<path class="st75" d="M758.1,70.4c-4.6,0-8.2-3.7-8.2-8.2s3.7-8.2,8.2-8.2s8.2,3.7,8.2,8.2"/>
	<path class="st75" d="M781.9,70.4c-4.6,0-8.2-3.7-8.2-8.2s3.7-8.2,8.2-8.2s8.2,3.7,8.2,8.2"/>
	<path class="st75" d="M805.6,70.4c-4.6,0-8.2-3.7-8.2-8.2s3.7-8.2,8.2-8.2s8.2,3.7,8.2,8.2"/>
	<line class="st79" x1="739.1" y1="64" x2="746.8" y2="64"/>
	<line class="st79" x1="762" y1="64" x2="769.7" y2="64"/>
	<line class="st79" x1="784.4" y1="64" x2="792.1" y2="64"/>
	<line class="st79" x1="808" y1="64" x2="815.7" y2="64"/>
	<line class="st80" x1="720.2" y1="224.5" x2="927.1" y2="224.5"/>
	<path class="st24" d="M856,294.7l6.6,9c1.3,1.8,3.9,2.2,5.7,0.9l0.5-0.3c1.8-1.3,2.2-3.9,0.9-5.7l-4.3-5.8"/>
	<path class="st24" d="M782,292.7l-4.3,5.8c-1.3,1.8-0.9,4.3,0.9,5.7l0.5,0.3c1.8,1.3,4.3,0.9,5.7-0.9l6.6-9"/>
	<line class="st81" x1="859.3" y1="199.1" x2="859.3" y2="204.9"/>
	<line class="st82" x1="784.4" y1="58.6" x2="792.1" y2="58.6"/>
	<line class="st82" x1="809.1" y1="58.6" x2="816.8" y2="58.6"/>
	<line class="st82" x1="760.9" y1="58.6" x2="768.6" y2="58.6"/>
	<line class="st82" x1="738.2" y1="58.6" x2="745.9" y2="58.6"/>
	<g>
		<g>
			<rect x="1156.2" y="213.6" class="st24" width="21.6" height="91.7"/>
			<path class="st7" d="M1197.6,201.5c0,15-13.7,27.2-30.6,27.2s-30.6-12.2-30.6-27.2"/>
			<line class="st83" x1="1166.5" y1="201.5" x2="1166.5" y2="180.9"/>
			<line class="st83" x1="1152.1" y1="201.5" x2="1152.1" y2="189.6"/>
			<line class="st83" x1="1179.9" y1="201.5" x2="1179.9" y2="189.6"/>
			<line class="st80" x1="1130.3" y1="201.5" x2="1203.7" y2="201.5"/>
		</g>
		<g>
			<ellipse class="st24" cx="1166.5" cy="125.2" rx="37.8" ry="45.1"/>
			<ellipse class="st23" cx="1167" cy="124.3" rx="32" ry="38.1"/>
			<g>
				<line class="st84" x1="1152.7" y1="113.8" x2="1159.2" y2="107.3"/>
				<line class="st84" x1="1146.8" y1="130.4" x2="1169.7" y2="107.5"/>
				<line class="st84" x1="1153.9" y1="136.2" x2="1169.2" y2="120.8"/>
			</g>
		</g>
	</g>
	<rect x="588.1" y="305.1" class="st7" width="735.6" height="16.3"/>
	<rect x="585.9" class="st3" width="13.9" height="320.9"/>
	<rect x="1319.6" class="st3" width="13.9" height="320.9"/>
	<line class="st75" x1="953.2" y1="177.1" x2="1059.2" y2="177.1"/>
	<path class="st51" d="M1005.9,236.3h-33.4c-3.4,0-6.2-2.8-6.2-6.2V172c0-3.4,2.8-6.2,6.2-6.2h33.4c3.4,0,6.2,2.8,6.2,6.2v58.1
		C1012.2,233.5,1009.4,236.3,1005.9,236.3z"/>
	<path class="st67" d="M1041.1,207.8h-13.4c-1.8,0-3.3-1.5-3.3-3.3v-33.9c0-1.8,1.5-3.3,3.3-3.3h13.4c1.8,0,3.3,1.5,3.3,3.3v33.9
		C1044.4,206.4,1042.9,207.8,1041.1,207.8z"/>
</g>
<g>
	<g>
		<g>
			<g>
				<line class="st72" x1="1714.4" y1="277.2" x2="1716.4" y2="253.5"/>
				<line class="st72" x1="1714.6" y1="275.1" x2="1717" y2="274"/>
				<line class="st72" x1="1714.8" y1="272.3" x2="1717.4" y2="270.9"/>
				<line class="st72" x1="1715.1" y1="269.4" x2="1717" y2="268.3"/>
				<line class="st72" x1="1715.6" y1="266.6" x2="1717.5" y2="265.4"/>
				<line class="st72" x1="1715.7" y1="263.8" x2="1717.2" y2="262.8"/>
				<line class="st72" x1="1716.3" y1="260.9" x2="1717.8" y2="259.6"/>
				<line class="st72" x1="1716.5" y1="257.6" x2="1717.7" y2="256.7"/>
				<line class="st72" x1="1716.3" y1="255.3" x2="1717.9" y2="254.4"/>
				<line class="st72" x1="1716.3" y1="254.7" x2="1714.9" y2="253.5"/>
				<line class="st72" x1="1716.1" y1="256.7" x2="1714.3" y2="255.3"/>
				<line class="st72" x1="1715.9" y1="259.2" x2="1714.5" y2="258"/>
				<line class="st72" x1="1715.7" y1="262.4" x2="1713.8" y2="261"/>
				<line class="st72" x1="1715.4" y1="265" x2="1713.7" y2="263.9"/>
				<line class="st72" x1="1715.2" y1="267.7" x2="1713.2" y2="266.5"/>
				<line class="st72" x1="1714.9" y1="270.7" x2="1713.2" y2="269.2"/>
				<line class="st72" x1="1714.7" y1="273.8" x2="1712.6" y2="272.3"/>
				<line class="st72" x1="1714.2" y1="276.1" x2="1712.1" y2="274.6"/>
			</g>
			<g>
				<line class="st72" x1="1711.2" y1="276.5" x2="1710.1" y2="247.8"/>
				<line class="st72" x1="1711.1" y1="274" x2="1713.8" y2="272.3"/>
				<line class="st72" x1="1711" y1="270.6" x2="1713.9" y2="268.5"/>
				<line class="st72" x1="1710.9" y1="267.1" x2="1713" y2="265.4"/>
				<line class="st72" x1="1711.1" y1="263.7" x2="1713.2" y2="261.9"/>
				<line class="st72" x1="1710.8" y1="260.2" x2="1712.4" y2="258.9"/>
				<line class="st72" x1="1711" y1="256.7" x2="1712.7" y2="255"/>
				<line class="st72" x1="1710.9" y1="252.7" x2="1712.2" y2="251.5"/>
				<line class="st72" x1="1710.3" y1="250" x2="1712.1" y2="248.6"/>
				<line class="st72" x1="1710.2" y1="249.3" x2="1708.3" y2="248.1"/>
				<line class="st72" x1="1710.3" y1="251.7" x2="1707.9" y2="250.3"/>
				<line class="st72" x1="1710.4" y1="254.7" x2="1708.5" y2="253.5"/>
				<line class="st72" x1="1710.5" y1="258.6" x2="1708.1" y2="257.2"/>
				<line class="st72" x1="1710.7" y1="261.8" x2="1708.4" y2="260.7"/>
				<line class="st72" x1="1710.8" y1="265" x2="1708.2" y2="263.9"/>
				<line class="st72" x1="1710.9" y1="268.7" x2="1708.6" y2="267.2"/>
				<line class="st72" x1="1711" y1="272.4" x2="1708.3" y2="270.9"/>
				<line class="st72" x1="1710.9" y1="275.3" x2="1708.1" y2="273.8"/>
			</g>
			<g>
				<line class="st72" x1="1706.9" y1="276.9" x2="1704.5" y2="250.3"/>
				<line class="st72" x1="1706.6" y1="274.5" x2="1709.1" y2="272.8"/>
				<line class="st72" x1="1706.4" y1="271.4" x2="1709" y2="269.3"/>
				<line class="st72" x1="1706.1" y1="268.1" x2="1708" y2="266.5"/>
				<line class="st72" x1="1706.2" y1="265" x2="1708.1" y2="263.3"/>
				<line class="st72" x1="1705.7" y1="261.8" x2="1707.2" y2="260.5"/>
				<line class="st72" x1="1705.8" y1="258.5" x2="1707.2" y2="256.9"/>
				<line class="st72" x1="1705.4" y1="254.9" x2="1706.6" y2="253.6"/>
				<line class="st72" x1="1704.8" y1="252.4" x2="1706.4" y2="251"/>
				<line class="st72" x1="1704.6" y1="251.7" x2="1702.8" y2="250.7"/>
				<line class="st72" x1="1704.8" y1="253.9" x2="1702.5" y2="252.7"/>
				<line class="st72" x1="1705.1" y1="256.8" x2="1703.3" y2="255.7"/>
				<line class="st72" x1="1705.4" y1="260.3" x2="1703" y2="259.2"/>
				<line class="st72" x1="1705.7" y1="263.3" x2="1703.5" y2="262.3"/>
				<line class="st72" x1="1705.9" y1="266.2" x2="1703.5" y2="265.3"/>
				<line class="st72" x1="1706.2" y1="269.6" x2="1704" y2="268.4"/>
				<line class="st72" x1="1706.5" y1="273.1" x2="1703.9" y2="271.8"/>
				<line class="st72" x1="1706.5" y1="275.7" x2="1703.9" y2="274.5"/>
			</g>
			<g>
				<line class="st72" x1="1718" y1="277.2" x2="1722" y2="258"/>
				<line class="st72" x1="1718.4" y1="275.5" x2="1720.5" y2="274.8"/>
				<line class="st72" x1="1718.9" y1="273.2" x2="1721.1" y2="272.3"/>
				<line class="st72" x1="1719.3" y1="270.9" x2="1721" y2="270.1"/>
				<line class="st72" x1="1720.1" y1="268.7" x2="1721.8" y2="267.8"/>
				<line class="st72" x1="1720.4" y1="266.3" x2="1721.7" y2="265.7"/>
				<line class="st72" x1="1721.1" y1="264" x2="1722.5" y2="263.2"/>
				<line class="st72" x1="1721.7" y1="261.4" x2="1722.7" y2="260.8"/>
				<line class="st72" x1="1721.7" y1="259.5" x2="1723.1" y2="258.9"/>
				<line class="st72" x1="1721.8" y1="259" x2="1720.7" y2="257.9"/>
				<line class="st72" x1="1721.5" y1="260.6" x2="1720.1" y2="259.3"/>
				<line class="st72" x1="1721" y1="262.6" x2="1720" y2="261.5"/>
				<line class="st72" x1="1720.5" y1="265.2" x2="1719.1" y2="263.9"/>
				<line class="st72" x1="1720.1" y1="267.3" x2="1718.8" y2="266.2"/>
				<line class="st72" x1="1719.6" y1="269.5" x2="1718.1" y2="268.3"/>
				<line class="st72" x1="1719.1" y1="271.9" x2="1717.8" y2="270.6"/>
				<line class="st72" x1="1718.6" y1="274.4" x2="1717" y2="273"/>
				<line class="st72" x1="1718" y1="276.3" x2="1716.4" y2="274.8"/>
			</g>
			<g>
				<line class="st72" x1="1702.8" y1="277.5" x2="1699.4" y2="258.2"/>
				<line class="st72" x1="1702.5" y1="275.8" x2="1704.2" y2="274.4"/>
				<line class="st72" x1="1702.1" y1="273.5" x2="1703.9" y2="271.8"/>
				<line class="st72" x1="1701.7" y1="271.1" x2="1703" y2="269.8"/>
				<line class="st72" x1="1701.5" y1="268.8" x2="1702.8" y2="267.4"/>
				<line class="st72" x1="1701" y1="266.5" x2="1702" y2="265.5"/>
				<line class="st72" x1="1700.8" y1="264.1" x2="1701.8" y2="262.8"/>
				<line class="st72" x1="1700.3" y1="261.5" x2="1701.1" y2="260.5"/>
				<line class="st72" x1="1699.7" y1="259.7" x2="1700.8" y2="258.6"/>
				<line class="st72" x1="1699.6" y1="259.2" x2="1698.2" y2="258.6"/>
				<line class="st72" x1="1699.8" y1="260.8" x2="1698.1" y2="260.1"/>
				<line class="st72" x1="1700.2" y1="262.9" x2="1698.8" y2="262.2"/>
				<line class="st72" x1="1700.7" y1="265.4" x2="1698.9" y2="264.8"/>
				<line class="st72" x1="1701" y1="267.6" x2="1699.4" y2="267"/>
				<line class="st72" x1="1701.4" y1="269.7" x2="1699.6" y2="269.2"/>
				<line class="st72" x1="1701.9" y1="272.2" x2="1700.1" y2="271.4"/>
				<line class="st72" x1="1702.3" y1="274.7" x2="1700.3" y2="274"/>
				<line class="st72" x1="1702.4" y1="276.7" x2="1700.4" y2="275.9"/>
			</g>
		</g>
		<g>
			<path class="st11" d="M1702,305.5h17.2c0.3,0,0.6-0.2,0.6-0.6l3-23.6c0-0.4-0.3-0.7-0.6-0.7H1699c-0.4,0-0.7,0.3-0.6,0.7l3,23.6
				C1701.4,305.3,1701.7,305.5,1702,305.5z"/>
			<path class="st22" d="M1697.4,283.1h26.5c0.6,0,1-0.4,1-1v-5.3c0-0.6-0.4-1-1-1h-26.5c-0.6,0-1,0.4-1,1v5.3
				C1696.4,282.7,1696.8,283.1,1697.4,283.1z"/>
		</g>
	</g>
	<g>
		<g>
			<path class="st12" d="M1547,232.7c0,0,2.7-4.8,5.8-6.6c3.1-1.8,2.2-6,0-6.2c0,0,5.8-3.9,1.3-6.6c0,0,1.7-4.8-1.3-5.5
				c0,0,1.4-4.5-2.3-4.7c0,0-0.1-4-3.5-4s-3.3,3.8-3.3,3.8s-2.7,0.8-2.2,5.3c0,0-3,1.2-1.5,4.9c0,0-4.2,3,0.4,7.1c0,0-3.3,2.2,0.7,6
				S1546.6,231,1547,232.7z"/>
			<line class="st72" x1="1547.1" y1="239.2" x2="1547.1" y2="199.1"/>
		</g>
		<g>
			<path class="st12" d="M1573.7,233c0,0,2.4-4.3,5.2-5.9c2.8-1.6,1.9-5.4,0-5.6c0,0,5.2-3.5,1.2-6c0,0,1.5-4.3-1.2-5
				c0,0,1.3-4-2.1-4.2c0,0-0.1-3.6-3.1-3.6c-3,0-2.9,3.4-2.9,3.4s-2.4,0.8-2,4.8c0,0-2.7,1.1-1.3,4.4c0,0-3.8,2.7,0.3,6.4
				c0,0-2.9,1.9,0.7,5.4C1572,230.6,1573.2,231.4,1573.7,233z"/>
			<line class="st72" x1="1573.7" y1="238.8" x2="1573.7" y2="202.7"/>
		</g>
		<g>
			<path class="st12" d="M1598.4,230.8c0,0,2.8-5.1,6.1-6.9c3.2-1.9,2.3-6.3,0-6.5c0,0,6.1-4.1,1.4-6.9c0,0,1.8-5-1.4-5.8
				c0,0,1.5-4.7-2.4-4.9c0,0-0.1-4.2-3.6-4.2c-3.5,0-3.4,4-3.4,4s-2.8,0.9-2.3,5.6c0,0-3.1,1.3-1.6,5.1c0,0-4.4,3.1,0.4,7.4
				c0,0-3.4,2.3,0.8,6.3C1596.4,228,1597.9,229,1598.4,230.8z"/>
			<line class="st72" x1="1598.4" y1="237.6" x2="1598.4" y2="195.6"/>
		</g>
		<g>
			<path class="st12" d="M1624.7,235.5c0,0,2.6-4.6,5.5-6.3s2.1-5.7,0-5.9c0,0,5.5-3.8,1.3-6.3c0,0,1.6-4.6-1.3-5.3
				c0,0,1.3-4.3-2.2-4.5c0,0-0.1-3.8-3.3-3.8c-3.2,0-3.1,3.7-3.1,3.7s-2.6,0.8-2.1,5.1c0,0-2.9,1.2-1.4,4.6c0,0-4,2.9,0.4,6.8
				c0,0-3.1,2.1,0.7,5.7C1622.9,232.9,1624.2,233.8,1624.7,235.5z"/>
			<line class="st72" x1="1624.7" y1="241.7" x2="1624.7" y2="203.3"/>
		</g>
		<g>
			<g>
				<path class="st99" d="M1528.4,290.3h109.4c0.6,0,1,0.4,1,1v14.3c0,0.6-0.4,1-1,1h-109.4c-0.6,0-1-0.4-1-1v-14.3
					C1527.4,290.7,1527.8,290.3,1528.4,290.3z"/>
				<path class="st99" d="M1528.4,229.9h109.4c0.6,0,1,0.4,1,1v14.3c0,0.6-0.4,1-1,1h-109.4c-0.6,0-1-0.4-1-1v-14.3
					C1527.4,230.3,1527.8,229.9,1528.4,229.9z"/>
				
					<rect x="1532.8" y="246.2" transform="matrix(-1 -4.488155e-11 4.488155e-11 -1 3166.1167 536.4414)" class="st73" width="100.6" height="44.1"/>
			</g>
			<circle class="st11" cx="1536.9" cy="238" r="1.4"/>
			<circle class="st11" cx="1628.3" cy="238" r="1.4"/>
			<circle class="st11" cx="1537.4" cy="299.4" r="1.4"/>
			<circle class="st11" cx="1628.8" cy="299.4" r="1.4"/>
		</g>
	</g>
	<g>
		<g>
			<line class="st71" x1="1692.5" y1="107.2" x2="1607.6" y2="107.2"/>
			<line class="st71" x1="1684.1" y1="215" x2="1615.9" y2="215"/>
			<line class="st71" x1="1687.5" y1="161.1" x2="1612.6" y2="161.1"/>
			<line class="st71" x1="1684.1" y1="107.2" x2="1671.5" y2="244.3"/>
			<line class="st71" x1="1615" y1="107.2" x2="1627.6" y2="244.3"/>
		</g>
		<g>
			<path class="st11" d="M1629.6,306.6h41c0.8,0,1.4-0.6,1.5-1.4l7.2-56.4c0.1-0.9-0.6-1.7-1.5-1.7h-55.3c-0.9,0-1.7,0.8-1.5,1.7
				l7.2,56.4C1628.1,306,1628.8,306.6,1629.6,306.6z"/>
			<path class="st22" d="M1617,253.1h66.1c0.6,0,1-0.4,1-1v-15.4c0-0.6-0.4-1-1-1H1617c-0.6,0-1,0.4-1,1v15.4
				C1616,252.7,1616.4,253.1,1617,253.1z"/>
		</g>
	</g>
</g>
</svg>
